<svg width="25" height="25" viewBox="0 0 25 25" fill="none" xmlns="http://www.w3.org/2000/svg">
<g clip-path="url(#clip0_13_296)">
<path d="M24.5833 12.5001C24.5833 19.4301 18.7542 24.9947 11.73 24.5597C5.71166 24.1868 0.813325 19.2884 0.440825 13.2701C0.00540861 6.24591 5.56999 0.416748 12.5 0.416748C14.4033 0.416748 16.2054 0.855915 17.8083 1.64216C18.2379 1.853 18.3954 2.388 18.1583 2.80383L18.1567 2.80675C17.9375 3.19091 17.4592 3.33383 17.0625 3.13841C15.4717 2.35508 13.6529 1.97383 11.7333 2.11091C6.69166 2.4705 2.57416 6.51425 2.12541 11.5488C1.56708 17.8151 6.58874 23.0747 12.7767 22.913C18.0758 22.7747 22.4992 18.5722 22.8871 13.2855C22.9879 11.9122 22.8225 10.5826 22.4292 9.35675C22.3046 8.968 22.4858 8.54842 22.8508 8.36591C23.3067 8.138 23.8654 8.36592 24.02 8.85133C24.3858 10.0017 24.5833 11.2276 24.5833 12.5001Z" fill="black"/>
<path d="M6.42082 9.36341L13.01 18.2788C13.5075 18.9522 14.52 18.8938 14.9396 18.168L24.4612 1.68549C24.9571 0.827158 23.8258 -0.0357588 23.1512 0.686741L13.2312 11.3126L7.47541 8.12674C6.69749 7.69632 5.88916 8.64382 6.42082 9.36341Z" fill="#AD0B13"/>
</g>
<defs>
<clipPath id="clip0_13_296">
<rect width="25" height="25" fill="white"/>
</clipPath>
</defs>
</svg>
