<svg width="69" height="69" viewBox="0 0 69 69" fill="none" xmlns="http://www.w3.org/2000/svg">
<g clip-path="url(#clip0_13_264)">
<path fill-rule="evenodd" clip-rule="evenodd" d="M75 38.8097C75 39.2967 74.548 39.6925 73.9917 39.6925H42.1816C43.9259 41.8905 45.2972 44.1166 45.2905 46.5765C45.2754 51.7775 40.4372 56 34.5 56C34.4899 56 34.4815 56 34.4731 56C28.5242 55.9868 23.6961 51.7392 23.7095 46.5294C23.7162 44.0768 25.0875 41.8685 26.8302 39.6925H-4.9917C-5.54795 39.6925 -6 39.2967 -6 38.8097C-6 38.3227 -5.54795 37.927 -4.9917 37.927H28.8098C29.1913 37.927 29.5409 38.1153 29.7106 38.4139C29.8803 38.7126 29.845 39.0701 29.6165 39.3379C27.4906 41.8273 25.7312 44.0857 25.7244 46.5339C25.7127 50.7696 29.6383 54.2242 34.4765 54.2345H34.4983C39.3264 54.2345 43.2588 50.802 43.2722 46.5721C43.2789 44.1225 41.5228 41.8449 39.4003 39.3349C39.1735 39.0672 39.1399 38.7097 39.3096 38.4125C39.481 38.1153 39.8289 37.927 40.2103 37.927H73.9917C74.548 37.927 75 38.3227 75 38.8097ZM29.7543 46.3279C29.7576 44.9052 30.7693 43.7252 31.6616 42.6836C31.9154 42.3878 32.1557 42.1068 32.3624 41.8346L33.6766 40.1044C33.8631 39.8587 34.179 39.7101 34.5168 39.7101H34.5202C34.8579 39.7101 35.1739 39.8602 35.3604 40.1074L36.6662 41.8435C36.8729 42.1171 37.1098 42.3981 37.3619 42.6953C38.2475 43.7399 39.2525 44.9243 39.2491 46.3485C39.2457 47.4578 38.7483 48.5009 37.8509 49.2837C36.9552 50.0634 35.7671 50.493 34.5034 50.493C34.5 50.493 34.495 50.493 34.4916 50.493C33.2245 50.4901 32.033 50.0561 31.139 49.269C30.245 48.4818 29.7509 47.4372 29.7543 46.3279ZM31.7709 46.3323C31.7692 46.9708 32.0515 47.5711 32.5658 48.0243C33.08 48.4774 33.7656 48.7275 34.4933 48.729H34.5C35.226 48.729 35.9099 48.4818 36.4258 48.0331C36.9434 47.5829 37.2291 46.9826 37.2308 46.3441C37.2325 45.5069 36.4746 44.6124 35.7419 43.7488C35.4848 43.4442 35.2176 43.1308 34.9806 42.8145L34.5134 42.1922L34.0429 42.8116C33.8043 43.1264 33.5354 43.4398 33.2749 43.7429C32.5355 44.6036 31.7726 45.4952 31.7709 46.3323ZM31.2919 17.9398L33.4917 16.0139V29.7496C33.4917 30.2366 33.9438 30.6324 34.5 30.6324C35.0562 30.6324 35.5083 30.2366 35.5083 29.7496V16.0139L37.7081 17.9398C37.9047 18.1119 38.1635 18.1987 38.4206 18.1987C38.6777 18.1987 38.9365 18.1119 39.1331 17.9398C39.5264 17.5955 39.5264 17.0364 39.1331 16.6907L35.2125 13.2582C34.8193 12.9139 34.1807 12.9139 33.7858 13.2582L29.8652 16.6907C29.472 17.035 29.472 17.594 29.8652 17.9398C30.2601 18.2841 30.8987 18.2841 31.2919 17.9398ZM41.2354 30.5897C41.3379 30.6192 41.4421 30.6324 41.5463 30.6324C41.9715 30.6324 42.3681 30.3941 42.5059 30.0204C44.0755 25.764 46.7071 22.8538 50.9353 20.7514L50.0849 23.5277C49.9404 23.9985 50.2597 24.4825 50.7975 24.609C50.8849 24.6296 50.9722 24.6399 51.0596 24.6399C51.505 24.6399 51.9116 24.3795 52.0326 23.9852L53.4678 19.2963C53.6123 18.8255 53.293 18.3414 52.7553 18.2149L47.3995 16.9584C46.8617 16.8319 46.3089 17.1115 46.1643 17.5823C46.0198 18.0531 46.3391 18.5371 46.8769 18.6636L49.7169 19.3301C45.1997 21.643 42.2723 24.9062 40.5851 29.4789C40.4137 29.9424 40.7044 30.4397 41.2354 30.5897ZM16.969 23.9852C17.09 24.3795 17.4967 24.6399 17.9421 24.6399C18.0278 24.6399 18.1168 24.6296 18.2042 24.609C18.742 24.4825 19.0613 23.9985 18.9167 23.5277L18.0664 20.7514C22.2945 22.8538 24.9245 25.764 26.4958 30.0204C26.6336 30.3941 27.0285 30.6324 27.4554 30.6324C27.5579 30.6324 27.6621 30.6192 27.7662 30.5897C28.2956 30.4397 28.5863 29.9424 28.4166 29.4789C26.7294 24.9062 23.8036 21.643 19.2848 19.3301L22.1248 18.6636C22.6626 18.5371 22.9819 18.0531 22.8373 17.5823C22.6928 17.1115 22.1399 16.8319 21.6022 16.9584L16.2464 18.2149C15.7087 18.3414 15.3894 18.8255 15.5339 19.2963L16.969 23.9852ZM35.436 37.5959C35.436 38.0829 35.8881 38.4787 36.4443 38.4787H36.4477C37.0039 38.4787 37.456 38.0829 37.456 37.5959C37.456 37.1089 37.0039 36.7132 36.4477 36.7132H36.4443C35.8881 36.7132 35.436 37.1075 35.436 37.5959ZM30.9105 35.7377C30.3542 35.7377 29.9022 36.1335 29.9022 36.6205C29.9022 37.1075 30.3542 37.5032 30.9105 37.5032H30.9138C31.4701 37.5032 31.9221 37.1075 31.9221 36.6205C31.9221 36.1335 31.4701 35.7377 30.9138 35.7377H30.9105ZM34.5706 33.2719H34.5672C34.011 33.2719 33.5589 33.6676 33.5589 34.1546C33.5589 34.6416 34.011 35.0374 34.5672 35.0374H34.5706C35.1268 35.0374 35.5789 34.6416 35.5789 34.1546C35.5789 33.6676 35.1285 33.2719 34.5706 33.2719ZM32.028 31.5402C32.5842 31.5402 33.0363 31.1444 33.0363 30.6574C33.0363 30.1704 32.5842 29.7747 32.028 29.7747H32.0246C31.4684 29.7747 31.0163 30.1704 31.0163 30.6574C31.0163 31.1444 31.4684 31.5402 32.0246 31.5402H32.028ZM37.1233 30.0321C36.567 30.0321 36.115 30.4279 36.115 30.9149C36.115 31.4019 36.567 31.7976 37.1233 31.7976H37.1266C37.6829 31.7976 38.1349 31.4019 38.1349 30.9149C38.1349 30.4279 37.6829 30.0321 37.1266 30.0321H37.1233ZM38.8357 35.9746C38.8357 36.4616 39.2877 36.8573 39.844 36.8573H39.8473C40.4036 36.8573 40.8556 36.4616 40.8556 35.9746C40.8556 35.4876 40.4036 35.0918 39.8473 35.0918H39.844C39.2861 35.0918 38.8357 35.4876 38.8357 35.9746ZM41.832 31.215C41.2758 31.215 40.8237 31.6108 40.8237 32.0978C40.8237 32.5848 41.2758 32.9805 41.832 32.9805H41.8354C42.3916 32.9805 42.8437 32.5848 42.8437 32.0978C42.8437 31.6108 42.3916 31.215 41.8354 31.215H41.832ZM26.7042 32.3332H26.7008C26.1446 32.3332 25.6925 32.729 25.6925 33.216C25.6925 33.7029 26.1446 34.0987 26.7008 34.0987H26.7042C27.2604 34.0987 27.7125 33.7029 27.7125 33.216C27.7125 32.729 27.2604 32.3332 26.7042 32.3332ZM30.3189 27.6192H30.3223C30.8785 27.6192 31.3306 27.2235 31.3306 26.7365C31.3306 26.2495 30.8785 25.8537 30.3223 25.8537H30.3189C29.7627 25.8537 29.3106 26.2495 29.3106 26.7365C29.3106 27.2235 29.761 27.6192 30.3189 27.6192ZM38.3988 28.1283C38.955 28.1283 39.4071 27.7325 39.4071 27.2455C39.4071 26.7586 38.955 26.3628 38.3988 26.3628H38.3954C37.8391 26.3628 37.3871 26.7586 37.3871 27.2455C37.3871 27.7325 37.8391 28.1283 38.3954 28.1283H38.3988Z" fill="url(#paint0_linear_13_264)"/>
</g>
<defs>
<linearGradient id="paint0_linear_13_264" x1="34.5" y1="13" x2="34.5" y2="56" gradientUnits="userSpaceOnUse">
<stop stop-color="#AD0B13"/>
<stop offset="1"/>
</linearGradient>
<clipPath id="clip0_13_264">
<rect width="69" height="69" fill="white"/>
</clipPath>
</defs>
</svg>
