<svg width="67" height="69" viewBox="0 0 67 69" fill="none" xmlns="http://www.w3.org/2000/svg">
<path d="M40.29 29.5866C40.29 29.0219 39.9378 28.517 39.4078 28.3218L23.6588 22.525C23.3583 22.4145 23.0284 22.4145 22.7278 22.525L6.97873 28.3217C6.4487 28.5168 6.09656 29.0217 6.09656 29.5865V39.6002C6.09656 44.6131 7.74245 49.4843 10.8565 53.6869C13.7805 57.6334 17.866 60.7867 22.671 62.8062C23.0028 62.9455 23.3836 62.9455 23.7154 62.8062C28.5206 60.7863 32.6062 57.6329 35.5302 53.6869C38.6439 49.4843 40.2898 44.6132 40.2898 39.6002V29.5866H40.29ZM37.5947 39.6002C37.5947 44.0313 36.1319 48.3475 33.3646 52.0822C30.8343 55.497 27.3261 58.2589 23.1932 60.0958C19.0606 58.2592 15.5525 55.4973 13.022 52.0824C10.2546 48.3473 8.79173 44.0312 8.79173 39.6002V30.5266L23.1931 25.226L37.5944 30.5267V39.6002H37.5947Z" fill="url(#paint0_linear_13_268)"/>
<path d="M56.9385 21.9601C56.9385 15.1541 51.4014 9.61694 44.5954 9.61694C41.3755 9.61694 38.3282 10.8494 36.0148 13.0872C34.1485 14.8925 32.9204 17.196 32.4589 19.7056L23.6589 16.4667C23.3583 16.3562 23.0284 16.3562 22.7279 16.4667L1.3259 24.3437C0.795868 24.5387 0.443726 25.0437 0.443726 25.6085V39.5489C0.443726 45.8047 2.48192 51.8621 6.33783 57.0659C10.1933 62.2693 15.6218 66.2804 22.0364 68.6654C22.403 68.8017 22.7954 68.9998 23.1932 68.9998C23.5912 68.9998 23.9839 68.8014 24.3506 68.6653C28.8258 67.0012 32.796 64.5666 36.1508 61.4289C36.6943 60.9206 36.7229 60.0677 36.2146 59.524C35.7061 58.9808 34.8533 58.9519 34.3097 59.4603C31.2169 62.353 27.5502 64.6 23.4117 66.1389C23.3528 66.1608 23.2556 66.2195 23.1934 66.2195C23.1313 66.2195 23.0344 66.161 22.9756 66.139C17.0518 63.9364 12.0476 60.2442 8.50352 55.4614C4.99409 50.725 3.13904 45.2226 3.13904 39.5489V26.5485L23.1934 19.1674L43.2477 26.5485V39.5489C43.2477 43.2697 42.4554 46.9054 40.8927 50.3548C40.5857 51.0327 40.8862 51.8313 41.5641 52.1385C42.2421 52.4455 43.0407 52.1448 43.3478 51.4671C45.0697 47.6659 45.9429 43.656 45.9429 39.5489V34.2307C52.1173 33.5571 56.9385 28.3115 56.9385 21.9601ZM45.943 31.5155V25.6082C45.943 25.0436 45.5909 24.5386 45.0608 24.3435L35.0359 20.6534C35.324 18.5159 36.3173 16.5447 37.8888 15.0244C39.6969 13.2754 42.0786 12.3123 44.5954 12.3123C49.9152 12.3123 54.2432 16.6403 54.2432 21.9601C54.2432 26.8234 50.6273 30.858 45.943 31.5155Z" fill="url(#paint1_linear_13_268)"/>
<path d="M44.5952 7.05202C45.3394 7.05202 45.9429 6.44853 45.9429 5.70436V1.34766C45.9429 0.603481 45.3394 0 44.5952 0C43.851 0 43.2476 0.603481 43.2476 1.34766V5.70436C43.2476 6.44867 43.851 7.05202 44.5952 7.05202Z" fill="url(#paint2_linear_13_268)"/>
<path d="M32.1474 11.4185C32.4106 11.6816 32.7555 11.8133 33.1004 11.8133C33.4452 11.8133 33.7901 11.6816 34.0533 11.4185C34.5795 10.8923 34.5795 10.0389 34.0533 9.51255L30.9727 6.43195C30.4463 5.90582 29.5932 5.90582 29.0667 6.43195C28.5404 6.95821 28.5404 7.81154 29.0667 8.33794L32.1474 11.4185Z" fill="url(#paint3_linear_13_268)"/>
<path d="M57.0434 32.5027C56.5171 31.9767 55.664 31.9766 55.1374 32.5027C54.6111 33.029 54.6111 33.8823 55.1374 34.4087L58.218 37.4894C58.4812 37.7525 58.826 37.8842 59.1709 37.8842C59.5158 37.8842 59.8606 37.7525 60.1238 37.4894C60.6501 36.9632 60.6501 36.1098 60.1238 35.5834L57.0434 32.5027Z" fill="url(#paint4_linear_13_268)"/>
<path d="M56.0904 11.8133C56.4354 11.8133 56.7802 11.6816 57.0434 11.4185L60.124 8.33794C60.6502 7.81168 60.6502 6.95834 60.124 6.43195C59.5976 5.90582 58.7445 5.90582 58.218 6.43195L55.1374 9.51255C54.6111 10.0388 54.6111 10.8921 55.1374 11.4185C55.4007 11.6817 55.7454 11.8133 56.0904 11.8133Z" fill="url(#paint5_linear_13_268)"/>
<path d="M65.2086 20.613H60.8519C60.1078 20.613 59.5043 21.2165 59.5043 21.9607C59.5043 22.7049 60.1078 23.3083 60.8519 23.3083H65.2086C65.9528 23.3083 66.5563 22.7049 66.5563 21.9607C66.5563 21.2165 65.9529 20.613 65.2086 20.613Z" fill="url(#paint6_linear_13_268)"/>
<path d="M17.5463 41.356C17.0199 40.8299 16.1668 40.8299 15.6403 41.356C15.114 41.8822 15.114 42.7356 15.6403 43.262L20.1915 47.8131C20.7109 48.3323 21.5781 48.3323 22.0975 47.8131L32.1801 37.7305C32.7063 37.2043 32.7063 36.3509 32.1801 35.8245C31.6537 35.2984 30.8006 35.2984 30.2741 35.8245L21.1444 44.9544L17.5463 41.356Z" fill="url(#paint7_linear_13_268)"/>
<path d="M40.4674 55.3954C40.1851 54.718 39.3863 54.3844 38.7072 54.6663C38.0287 54.948 37.6978 55.7477 37.9782 56.4265C38.2583 57.1049 39.0605 57.4368 39.7383 57.1554C40.4188 56.8729 40.7461 56.0755 40.4674 55.3954Z" fill="url(#paint8_linear_13_268)"/>
<defs>
<linearGradient id="paint0_linear_13_268" x1="23.1933" y1="22.4421" x2="23.1933" y2="62.9107" gradientUnits="userSpaceOnUse">
<stop stop-color="#AD0B13"/>
<stop offset="1"/>
</linearGradient>
<linearGradient id="paint1_linear_13_268" x1="28.6911" y1="9.61694" x2="28.6911" y2="68.9998" gradientUnits="userSpaceOnUse">
<stop stop-color="#AD0B13"/>
<stop offset="1"/>
</linearGradient>
<linearGradient id="paint2_linear_13_268" x1="44.5952" y1="0" x2="44.5952" y2="7.05202" gradientUnits="userSpaceOnUse">
<stop stop-color="#AD0B13"/>
<stop offset="1"/>
</linearGradient>
<linearGradient id="paint3_linear_13_268" x1="31.56" y1="6.03735" x2="31.56" y2="11.8133" gradientUnits="userSpaceOnUse">
<stop stop-color="#AD0B13"/>
<stop offset="1"/>
</linearGradient>
<linearGradient id="paint4_linear_13_268" x1="57.6306" y1="32.1082" x2="57.6306" y2="37.8842" gradientUnits="userSpaceOnUse">
<stop stop-color="#AD0B13"/>
<stop offset="1"/>
</linearGradient>
<linearGradient id="paint5_linear_13_268" x1="57.6307" y1="6.03735" x2="57.6307" y2="11.8133" gradientUnits="userSpaceOnUse">
<stop stop-color="#AD0B13"/>
<stop offset="1"/>
</linearGradient>
<linearGradient id="paint6_linear_13_268" x1="63.0303" y1="20.613" x2="63.0303" y2="23.3083" gradientUnits="userSpaceOnUse">
<stop stop-color="#AD0B13"/>
<stop offset="1"/>
</linearGradient>
<linearGradient id="paint7_linear_13_268" x1="23.9102" y1="35.4299" x2="23.9102" y2="48.2025" gradientUnits="userSpaceOnUse">
<stop stop-color="#AD0B13"/>
<stop offset="1"/>
</linearGradient>
<linearGradient id="paint8_linear_13_268" x1="39.2226" y1="54.5659" x2="39.2226" y2="57.2557" gradientUnits="userSpaceOnUse">
<stop stop-color="#AD0B13"/>
<stop offset="1"/>
</linearGradient>
</defs>
</svg>
