<svg width="130" height="20" viewBox="0 0 130 20" fill="none" xmlns="http://www.w3.org/2000/svg">
<path d="M9.64355 0.884766C9.89657 0.372207 10.6271 0.371925 10.8799 0.883789V0.884766L13.1299 5.44238C13.3451 5.87847 13.736 6.19788 14.1992 6.32422L14.4014 6.36621L19.4316 7.09766C19.9969 7.17986 20.2224 7.87469 19.8135 8.27344L16.1738 11.8213C15.7759 12.2092 15.5935 12.7693 15.6875 13.3174L16.5479 18.3271C16.6443 18.8901 16.0525 19.3195 15.5469 19.0537L11.0479 16.6885C10.6172 16.4622 10.113 16.4338 9.66406 16.6035L9.47559 16.6885L4.97656 19.0537C4.5024 19.3029 3.95285 18.9409 3.96582 18.4307L3.97656 18.3271L4.83594 13.3174C4.91817 12.838 4.78895 12.3493 4.48828 11.9746L4.34961 11.8213L0.709961 8.27344C0.300889 7.87477 0.526125 7.17989 1.0918 7.09766L6.12207 6.36621C6.67236 6.28624 7.14852 5.9409 7.39453 5.44238L9.64355 0.884766Z" fill="#FFE372" stroke="black"/>
<path d="M36.9479 0.884766C37.2009 0.372256 37.9313 0.372256 38.1843 0.884766L40.4343 5.44238C40.6801 5.94058 41.1555 6.28651 41.7057 6.36621L46.736 7.09766C47.2658 7.17471 47.498 7.79011 47.1882 8.19531L47.1188 8.27344L43.4782 11.8213C43.0803 12.2092 42.8989 12.7693 42.9929 13.3174L43.8522 18.3271C43.9487 18.89 43.3578 19.3192 42.8522 19.0537L38.3522 16.6885C37.9217 16.4623 37.4174 16.4338 36.9684 16.6035L36.78 16.6885L32.2809 19.0537C31.8068 19.3029 31.2572 18.9409 31.2702 18.4307L31.28 18.3271L32.1393 13.3174C32.2334 12.7693 32.0519 12.2092 31.654 11.8213L28.0134 8.27344C27.6046 7.87453 27.8309 7.17984 28.3962 7.09766L33.4265 6.36621C33.9767 6.28624 34.4519 5.9409 34.6979 5.44238L36.9479 0.884766Z" fill="#FFE372" stroke="black"/>
<path d="M64.2523 0.883789C64.5051 0.371837 65.2359 0.371863 65.4886 0.883789V0.884766L67.7386 5.44238C67.9845 5.94053 68.46 6.28647 69.0101 6.36621L74.0414 7.09766C74.571 7.17496 74.8024 7.79021 74.4926 8.19531L74.4232 8.27344L70.7826 11.8213C70.3847 12.2092 70.2032 12.7693 70.2972 13.3174L71.1566 18.3271C71.2531 18.8901 70.6622 19.3193 70.1566 19.0537L65.6566 16.6885C65.1647 16.43 64.5763 16.43 64.0844 16.6885L59.5853 19.0537C59.1112 19.3029 58.5616 18.9409 58.5746 18.4307L58.5853 18.3271L59.4447 13.3174C59.5269 12.838 59.3977 12.3493 59.097 11.9746L58.9584 11.8213L55.3187 8.27344C54.9097 7.87477 55.1349 7.1799 55.7006 7.09766L60.7308 6.36621C61.2811 6.28624 61.7573 5.9409 62.0033 5.44238L64.2523 0.884766V0.883789Z" fill="#FFE372" stroke="black"/>
<path d="M91.5562 0.884766C91.8095 0.371914 92.5397 0.372215 92.7925 0.883789V0.884766L95.0425 5.44238C95.2883 5.94053 95.7638 6.28647 96.314 6.36621L101.345 7.09766C101.875 7.17496 102.106 7.79021 101.796 8.19531L101.727 8.27344L98.0864 11.8213C97.6885 12.2092 97.5071 12.7693 97.6011 13.3174L98.4604 18.3271C98.5569 18.89 97.9661 19.3193 97.4604 19.0537L92.9604 16.6885C92.4685 16.43 91.8801 16.43 91.3882 16.6885L86.8892 19.0537C86.415 19.3029 85.8654 18.9409 85.8784 18.4307L85.8892 18.3271L86.7485 13.3174C86.8425 12.7693 86.6601 12.2092 86.2622 11.8213L82.6226 8.27344C82.2135 7.87476 82.4387 7.17989 83.0044 7.09766L88.0347 6.36621C88.585 6.28624 89.0611 5.9409 89.3071 5.44238L91.5562 0.884766Z" fill="#FFE372" stroke="black"/>
<path d="M118.861 0.884766C119.114 0.372256 119.844 0.372256 120.097 0.884766L122.347 5.44238C122.593 5.94058 123.068 6.28651 123.619 6.36621L128.649 7.09766C129.179 7.17471 129.411 7.79011 129.101 8.19531L129.032 8.27344L125.391 11.8213C124.993 12.2092 124.812 12.7693 124.906 13.3174L125.765 18.3271C125.862 18.89 125.271 19.3192 124.765 19.0537L120.265 16.6885C119.773 16.43 119.185 16.43 118.693 16.6885L114.194 19.0537C113.72 19.3029 113.17 18.9409 113.183 18.4307L113.193 18.3271L114.052 13.3174C114.146 12.7693 113.965 12.2092 113.567 11.8213L109.926 8.27344C109.518 7.87453 109.744 7.17984 110.309 7.09766L115.339 6.36621C115.89 6.28624 116.365 5.9409 116.611 5.44238L118.861 0.884766Z" fill="#FFE372" stroke="black"/>
</svg>
