<svg width="40" height="40" viewBox="0 0 40 40" fill="none" xmlns="http://www.w3.org/2000/svg">
<path fill-rule="evenodd" clip-rule="evenodd" d="M26.4761 26.013C26.1797 26.0129 25.8955 25.8952 25.6859 25.6856C25.4763 25.476 25.3585 25.1918 25.3585 24.8954L25.3585 16.5284L14.6203 27.2666C14.4107 27.4762 14.1263 27.5939 13.83 27.5939C13.5334 27.5939 13.2492 27.4762 13.0396 27.2666C12.8299 27.0569 12.7121 26.7726 12.7121 26.4761C12.7121 26.1797 12.83 25.8954 13.0396 25.6858L23.7777 14.9476L15.4107 14.9476C15.1176 14.9424 14.8383 14.8225 14.6328 14.6134C14.4275 14.4044 14.3122 14.1231 14.3123 13.8299C14.3123 13.5368 14.4275 13.2555 14.6329 13.0465C14.8383 12.8374 15.1177 12.7174 15.4106 12.7123L26.4761 12.7124C26.7725 12.7124 27.0567 12.8302 27.2663 13.0398C27.4759 13.2493 27.5936 13.5336 27.5937 13.8299L27.5937 24.8954C27.5936 25.1918 27.4759 25.476 27.2663 25.6856C27.0567 25.8952 26.7725 26.0129 26.4761 26.013Z" fill="white"/>
</svg>
