<svg width="31" height="31" viewBox="0 0 31 31" fill="none" xmlns="http://www.w3.org/2000/svg">
<path d="M22.0391 1.9375C20.813 1.93893 19.6003 2.19152 18.4757 2.6797C17.351 3.16788 16.3383 3.88129 15.5 4.77594C14.2715 3.46479 12.6772 2.55323 10.9241 2.1596C9.17096 1.76597 7.34 1.90844 5.66888 2.56854C3.99776 3.22863 2.56367 4.37584 1.55278 5.86126C0.541889 7.34667 0.000884614 9.10167 0 10.8984C0 19.8206 14.3908 28.5781 15.0156 28.922C15.1663 29.0126 15.3388 29.0604 15.5145 29.0604C15.6903 29.0604 15.8628 29.0126 16.0134 28.922C16.6092 28.5781 31 19.8206 31 10.8984C30.9974 8.52264 30.0525 6.24488 28.3726 4.56493C26.6926 2.88498 24.4149 1.94006 22.0391 1.9375ZM15.5 26.9506C12.9958 25.3522 1.9375 17.8831 1.9375 10.8984C1.93874 9.40654 2.41502 7.95379 3.29731 6.75073C4.1796 5.54768 5.42206 4.65683 6.84462 4.20728C8.26718 3.75774 9.79594 3.77286 11.2093 4.25046C12.6227 4.72806 13.8473 5.64332 14.7056 6.86359C14.795 6.99052 14.9137 7.0941 15.0515 7.1656C15.1893 7.23709 15.3423 7.27441 15.4976 7.27441C15.6528 7.27441 15.8058 7.23709 15.9437 7.1656C16.0815 7.0941 16.2001 6.99052 16.2895 6.86359C17.1471 5.64122 18.372 4.72398 19.7863 4.24504C21.2006 3.7661 22.7308 3.75038 24.1546 4.20016C25.5785 4.64994 26.822 5.54182 27.7045 6.74631C28.587 7.9508 29.0627 9.40523 29.0625 10.8984C29.0625 17.8783 18.0042 25.3473 15.5 26.9506Z" fill="black"/>
</svg>
