<svg width="26" height="25" viewBox="0 0 26 25" fill="none" xmlns="http://www.w3.org/2000/svg">
<g clip-path="url(#clip0_42_16)">
<path d="M18.1359 2.08691C17.173 2.08803 16.2205 2.28642 15.3371 2.66985C14.4538 3.05327 13.6584 3.61359 13 4.31626C12.0351 3.28647 10.783 2.57051 9.40603 2.26135C8.02911 1.95219 6.59105 2.06409 5.27853 2.58254C3.96601 3.10098 2.83966 4.00202 2.04569 5.16869C1.25172 6.33535 0.826806 7.71376 0.826111 9.12496C0.826111 16.1326 12.1288 23.0108 12.6196 23.2809C12.7379 23.352 12.8734 23.3896 13.0114 23.3896C13.1495 23.3896 13.2849 23.352 13.4033 23.2809C13.8712 23.0108 25.1739 16.1326 25.1739 9.12496C25.1719 7.25897 24.4298 5.46999 23.1103 4.15053C21.7909 2.83108 20.0019 2.08893 18.1359 2.08691ZM13 21.7326C11.0332 20.4771 2.34785 14.6108 2.34785 9.12496C2.34883 7.9532 2.7229 6.81219 3.41586 5.86729C4.10883 4.9224 5.08467 4.22271 6.20197 3.86963C7.31927 3.51656 8.51998 3.52843 9.63007 3.90355C10.7402 4.27866 11.702 4.99752 12.3761 5.95594C12.4463 6.05563 12.5395 6.13698 12.6478 6.19313C12.756 6.24929 12.8762 6.2786 12.9981 6.2786C13.1201 6.2786 13.2402 6.24929 13.3485 6.19313C13.4567 6.13698 13.5499 6.05563 13.6201 5.95594C14.2937 4.99587 15.2557 4.27546 16.3666 3.89929C17.4774 3.52312 18.6792 3.51077 19.7975 3.86404C20.9158 4.2173 21.8924 4.91779 22.5856 5.86382C23.2788 6.80985 23.6524 7.95217 23.6522 9.12496C23.6522 14.607 14.9669 20.4733 13 21.7326Z" fill="white"/>
</g>
<defs>
<clipPath id="clip0_42_16">
<rect width="24.3478" height="24.3478" fill="white" transform="translate(0.826111 0.565186)"/>
</clipPath>
</defs>
</svg>
