<svg width="69" height="69" viewBox="0 0 69 69" fill="none" xmlns="http://www.w3.org/2000/svg">
<path d="M38.0172 53.2577H30.9828C30.2809 53.2577 29.7115 52.6887 29.7115 51.9865V42.688C29.7115 42.3508 29.8455 42.0276 30.084 41.7891L41.7889 30.0845C42.0272 29.8462 42.351 29.7122 42.6878 29.7122H51.9867C52.6885 29.7122 53.2579 30.2811 53.2579 30.9834V38.017C53.2579 38.7191 52.6885 39.2883 51.9867 39.2883H39.2885V51.9865C39.2885 52.6887 38.7191 53.2577 38.0172 53.2577ZM32.2542 50.7151H36.746V38.7229L32.2542 43.2144V50.7151ZM38.7232 36.7456H50.7154V32.2547H43.2142L38.7232 36.7456Z" fill="url(#paint0_linear_13_256)"/>
<path d="M26.3122 39.2881H17.0132C16.3113 39.2881 15.7418 38.7192 15.7418 38.0169V30.9833C15.7418 30.281 16.3113 29.712 17.0132 29.712H29.7114V17.0138C29.7114 16.3115 30.2808 15.7424 30.9827 15.7424H38.0171C38.719 15.7424 39.2883 16.3114 39.2883 17.0138V26.3124C39.2883 26.6497 39.1543 26.9729 38.916 27.2112L27.211 38.9158C26.9727 39.1541 26.6491 39.2881 26.3122 39.2881ZM18.2846 36.7456H25.7859L30.2768 32.2547H18.2846V36.7456ZM32.2542 18.2851V30.2773L36.746 25.7859V18.2851H32.2542Z" fill="url(#paint1_linear_13_256)"/>
<path d="M34.5004 65.5496C17.379 65.5496 3.45001 51.621 3.45001 34.5C3.45001 17.3791 17.379 3.45044 34.5004 3.45044C51.621 3.45044 65.55 17.3791 65.55 34.5C65.55 51.621 51.621 65.5496 34.5004 65.5496ZM34.5004 5.99309C18.7811 5.99309 5.99266 18.7811 5.99266 34.5C5.99266 50.2189 18.7811 63.007 34.5004 63.007C50.2189 63.007 63.0074 50.2189 63.0074 34.5C63.0074 18.7811 50.2189 5.99309 34.5004 5.99309ZM34.5004 58.9444C29.1727 58.9444 24.1081 57.2597 19.8546 54.0717C19.5592 53.8508 19.3755 53.5127 19.349 53.1448C19.3225 52.7772 19.4573 52.4164 19.7181 52.1556L52.1557 19.7176C52.4165 19.4572 52.7806 19.3211 53.1449 19.3485C53.5124 19.3745 53.8509 19.5592 54.0719 19.8538C54.9526 21.0286 55.7306 22.2892 56.3845 23.6006C56.6981 24.2288 56.4433 24.9924 55.8149 25.3056C55.1892 25.6189 54.422 25.3648 54.11 24.7353C53.7425 23.9991 53.3311 23.2808 52.8817 22.5876L22.5877 52.882C26.1325 55.1891 30.2213 56.4017 34.5004 56.4017C40.3827 56.4017 45.9042 54.1017 50.0485 49.9251C50.5425 49.4272 51.347 49.4235 51.8462 49.9181C52.3445 50.4125 52.3478 51.2175 51.8528 51.7162C47.2276 56.3772 41.0656 58.9444 34.5004 58.9444ZM15.9455 49.6549C15.9157 49.6549 15.8851 49.6537 15.8554 49.6516C15.4879 49.6255 15.1494 49.441 14.9283 49.146C11.7409 44.8932 10.0558 39.8286 10.0558 34.5C10.0558 21.0217 21.0218 10.0562 34.5006 10.0562C39.8283 10.0562 44.8921 11.7409 49.1462 14.9283C49.441 15.1493 49.6255 15.4874 49.652 15.8554C49.6785 16.2229 49.5435 16.5838 49.2828 16.8444L16.8443 49.2823C16.6051 49.5216 16.2815 49.6549 15.9455 49.6549ZM34.5004 12.5989C22.4238 12.5989 12.5983 22.4238 12.5983 34.5C12.5983 38.7795 13.8109 42.8679 16.1184 46.4127L46.4131 16.118C42.8675 13.8109 38.7787 12.5989 34.5004 12.5989Z" fill="url(#paint2_linear_13_256)"/>
<path d="M55.9473 26.7704C55.531 26.7704 55.1355 26.5225 54.9672 26.1132C54.762 25.6138 54.5376 25.1188 54.2993 24.6412C54.0378 24.1177 54.2505 23.4817 54.7736 23.2204C55.2993 22.9585 55.9341 23.1716 56.1947 23.6952C56.4564 24.2187 56.703 24.7612 56.9272 25.3078C57.1498 25.8492 56.8908 26.4683 56.3496 26.6905C56.2179 26.7447 56.0814 26.7704 55.9473 26.7704Z" fill="url(#paint3_linear_13_256)"/>
<path d="M55.531 45.2983C55.3821 45.2983 55.2297 45.2664 55.0856 45.1995C54.555 44.9529 54.3243 44.3225 54.5709 43.792C54.9955 42.8796 55.3589 41.928 55.6535 40.9643C55.8239 40.4056 56.415 40.0895 56.9753 40.2599C57.5356 40.4308 57.8509 41.023 57.6796 41.5825C57.3577 42.6399 56.9577 43.6835 56.4927 44.685C56.3132 45.071 55.9308 45.2983 55.531 45.2983ZM57.668 36.0784C57.0572 36.0639 56.5937 35.5784 56.6076 34.9937C56.6118 34.8293 56.6134 34.6646 56.6134 34.4999C56.6134 33.6556 56.5656 32.8036 56.4694 31.9668C56.4033 31.3853 56.8211 30.8606 57.4022 30.7945C57.9708 30.7258 58.508 31.145 58.5751 31.7268C58.6794 32.6427 58.7324 33.5759 58.7324 34.4999C58.7324 34.6819 58.7308 34.8633 58.7266 35.0442C58.7126 35.6206 58.2407 36.0784 57.668 36.0784Z" fill="url(#paint4_linear_13_256)"/>
<path d="M50.9506 51.8801C50.6807 51.8801 50.4117 51.778 50.2047 51.5735C49.7892 51.1617 49.7859 50.491 50.1982 50.0751C50.5781 49.6919 50.9473 49.2917 51.2957 48.8857C51.6763 48.442 52.3444 48.3908 52.7897 48.7716C53.2332 49.1526 53.2847 49.8215 52.903 50.2655C52.5224 50.7095 52.1185 51.1475 51.7028 51.5666C51.4961 51.7755 51.2237 51.8801 50.9506 51.8801Z" fill="url(#paint5_linear_13_256)"/>
<defs>
<linearGradient id="paint0_linear_13_256" x1="41.4847" y1="53.2577" x2="41.4847" y2="29.7122" gradientUnits="userSpaceOnUse">
<stop/>
<stop offset="1" stop-color="#AD0B13"/>
</linearGradient>
<linearGradient id="paint1_linear_13_256" x1="27.5151" y1="39.2881" x2="27.5151" y2="15.7424" gradientUnits="userSpaceOnUse">
<stop/>
<stop offset="1" stop-color="#AD0B13"/>
</linearGradient>
<linearGradient id="paint2_linear_13_256" x1="34.5" y1="65.5496" x2="34.5" y2="3.45044" gradientUnits="userSpaceOnUse">
<stop/>
<stop offset="1" stop-color="#AD0B13"/>
</linearGradient>
<linearGradient id="paint3_linear_13_256" x1="55.5972" y1="26.7704" x2="55.5972" y2="23.1084" gradientUnits="userSpaceOnUse">
<stop/>
<stop offset="1" stop-color="#AD0B13"/>
</linearGradient>
<linearGradient id="paint4_linear_13_256" x1="56.6022" y1="45.2983" x2="56.6022" y2="30.7871" gradientUnits="userSpaceOnUse">
<stop/>
<stop offset="1" stop-color="#AD0B13"/>
</linearGradient>
<linearGradient id="paint5_linear_13_256" x1="51.5249" y1="51.8801" x2="51.5249" y2="48.5164" gradientUnits="userSpaceOnUse">
<stop/>
<stop offset="1" stop-color="#AD0B13"/>
</linearGradient>
</defs>
</svg>
