<svg width="69" height="69" viewBox="0 0 69 69" fill="none" xmlns="http://www.w3.org/2000/svg">
<path fill-rule="evenodd" clip-rule="evenodd" d="M13.8954 4.24783L15.6671 10.0165L21.4347 11.7882C22.4778 12.1081 22.471 13.5858 21.4358 13.908L15.6671 15.6797L13.8954 21.4475C13.5765 22.4915 12.0978 22.4837 11.7744 21.4484L10.0016 15.6797L4.23508 13.908C3.19203 13.5881 3.19988 12.1104 4.2362 11.7882L10.0016 10.0165L11.7744 4.24783C12.0933 3.20475 13.5731 3.21252 13.8954 4.24783ZM22.7573 30.5306C22.4643 31.0672 21.7918 31.2661 21.254 30.9741C20.7162 30.6812 20.5185 30.0063 20.8105 29.4697C22.3531 26.6345 24.1698 23.7837 26.0661 20.8028C29.2504 15.8022 32.6771 10.4241 35.4143 4.13085C35.8018 3.23724 37.067 3.25534 37.4487 4.13085C40.1862 10.4241 43.6115 15.801 46.7947 20.8008C51.8842 28.7936 56.3796 35.8514 56.7323 44.3328C57.197 56.005 49.9955 65.0276 37.9877 65.5238C31.3846 65.7899 25.1893 64.1754 20.7352 59.0264C20.3344 58.5627 20.3849 57.8621 20.8475 57.4613C21.3112 57.0604 22.0118 57.1121 22.4127 57.5747C26.4075 62.1915 31.9965 63.5489 37.9 63.3064C48.663 62.8618 54.9505 54.8508 54.5159 44.4203C54.188 36.5364 49.8441 29.7143 44.9253 21.9908C42.0734 17.5121 39.0319 12.737 36.4315 7.25347C33.83 12.737 30.7884 17.5144 27.9367 21.9931C26.0661 24.9303 24.2764 27.7416 22.7573 30.5306ZM42.3856 57.825C42.1128 57.276 42.3362 56.6068 42.8863 56.334C45.4407 55.0574 47.0721 52.9601 47.9568 50.5226C49.0154 47.6067 49.0255 44.2048 48.2845 41.1059C48.1419 40.5109 48.5113 39.9125 49.1077 39.7711C49.7015 39.6294 50.2988 39.9979 50.4402 40.594C51.2766 44.0846 51.2542 47.9425 50.0438 51.2793C48.9729 54.2255 46.991 56.7708 43.8765 58.3258C43.3275 58.5986 42.6584 58.3752 42.3856 57.825ZM58.5333 10.1007L59.9929 14.8534L64.7466 16.3141C65.7909 16.632 65.7828 18.1128 64.7478 18.435L59.9929 19.8957L58.5333 24.6483C58.2131 25.6926 56.7369 25.6848 56.4135 24.6483L54.9528 19.8957L50.1987 18.435C49.158 18.1162 49.1637 16.6374 50.1999 16.3141L54.9528 14.8534L56.4124 10.1007C56.7311 9.05881 58.2099 9.06455 58.5333 10.1007ZM58.0447 16.0683L57.4733 14.2055L56.9019 16.0614C56.8478 16.3894 56.473 16.7081 56.1663 16.8024L54.3026 17.3741L56.1609 17.9455C56.5032 18.032 56.7984 18.3485 56.9019 18.681L57.4733 20.5447L58.0435 18.6876C58.0976 18.3608 58.4747 18.0421 58.7802 17.9478L60.6427 17.3741L58.7848 16.8036C58.4557 16.7441 58.1401 16.3782 58.0447 16.0683ZM19.1162 33.379L21.3191 40.5457L28.4902 42.7474C29.5344 43.0674 29.5255 44.5472 28.4902 44.8683L21.3191 47.0712L19.1151 54.2423C18.7962 55.2865 17.3175 55.2775 16.9953 54.2423L14.7924 47.0712L7.62133 44.8683C6.58052 44.5495 6.58615 43.0719 7.62245 42.7474L14.7924 40.5457L16.9942 33.3747C17.3029 32.3698 18.7828 32.2686 19.1162 33.379ZM19.3711 41.7594L18.0563 37.4783L16.7427 41.7538C16.6102 42.1176 16.3868 42.3769 16.0062 42.4948L11.7262 43.8073L16.0005 45.1221C16.3407 45.1973 16.6383 45.524 16.7404 45.8575L18.0563 50.1386L19.3688 45.8631C19.4856 45.515 19.7405 45.2355 20.1054 45.1232L24.3853 43.8073L20.111 42.4948C19.782 42.4353 19.4665 42.0693 19.3711 41.7594ZM13.718 11.2303L12.8343 8.35144L11.9507 11.2246C11.8968 11.5514 11.5218 11.8713 11.2164 11.9656L8.3399 12.8483L11.2097 13.7295C11.5577 13.8249 11.8463 14.1247 11.9507 14.4662L12.8343 17.3448L13.7168 14.4717C13.7932 14.1313 14.1199 13.8338 14.4534 13.7307L17.3299 12.8483L14.4567 11.9656C14.121 11.8905 13.8179 11.5537 13.718 11.2303Z" fill="url(#paint0_linear_13_218)"/>
<defs>
<linearGradient id="paint0_linear_13_218" x1="34.4914" y1="3.46741" x2="34.4914" y2="65.5515" gradientUnits="userSpaceOnUse">
<stop stop-color="#AD0B13"/>
<stop offset="1"/>
</linearGradient>
</defs>
</svg>
