<svg width="19" height="19" viewBox="0 0 19 19" fill="none" xmlns="http://www.w3.org/2000/svg">
<g clip-path="url(#clip0_4_10)">
<path d="M18.82 17.9663L13.9145 13.1392C15.1991 11.7435 15.9884 9.89775 15.9884 7.86665C15.9877 3.52174 12.409 0 7.99399 0C3.57902 0 0.000244141 3.52174 0.000244141 7.86665C0.000244141 12.2116 3.57902 15.7333 7.99399 15.7333C9.90157 15.7333 11.6512 15.0735 13.0254 13.9766L17.95 18.8227C18.1899 19.0591 18.5795 19.0591 18.8194 18.8227C19.0599 18.5864 19.0599 18.2027 18.82 17.9663ZM7.99399 14.523C4.25844 14.523 1.23019 11.5428 1.23019 7.86665C1.23019 4.19046 4.25844 1.21033 7.99399 1.21033C11.7296 1.21033 14.7578 4.19046 14.7578 7.86665C14.7578 11.5428 11.7296 14.523 7.99399 14.523Z" fill="black"/>
</g>
<defs>
<clipPath id="clip0_4_10">
<rect width="19" height="19" fill="white"/>
</clipPath>
</defs>
</svg>
