<svg width="27" height="28" viewBox="0 0 27 28" fill="none" xmlns="http://www.w3.org/2000/svg">
<path d="M18.2396 7.57292V7.20833C18.2396 5.95417 17.7438 4.74375 16.8542 3.85417C15.9646 2.96458 14.7542 2.46875 13.5 2.46875C12.2459 2.46875 11.0354 2.96458 10.1459 3.85417C9.25627 4.74375 8.76044 5.95417 8.76044 7.20833V7.57292H18.2396ZM6.57294 14.5V9.76042H5.97502C5.02711 9.76042 4.23961 10.4896 4.15211 11.4375L3.1896 23.1042C3.1021 24.1542 3.93336 25.0729 4.99794 25.0729H22.0021C23.0667 25.0729 23.8979 24.1542 23.8104 23.1042L22.8479 11.4375C22.7604 10.4896 21.9729 9.76042 21.025 9.76042H20.4271V14.5C20.4271 15.0979 19.9313 15.5938 19.3334 15.5938C18.7354 15.5938 18.2396 15.0979 18.2396 14.5V9.76042H8.76044V14.5C8.76044 15.0979 8.26461 15.5938 7.66669 15.5938C7.06877 15.5938 6.57294 15.0979 6.57294 14.5ZM6.57294 7.20833C6.57294 5.37083 7.30211 3.60625 8.60002 2.30833C9.89794 1.01042 11.6625 0.28125 13.5 0.28125C15.3375 0.28125 17.1021 1.01042 18.4 2.30833C19.6979 3.60625 20.4271 5.37083 20.4271 7.20833V7.57292H21.025C23.1104 7.57292 24.8459 9.17708 25.0209 11.2479L25.9979 22.9146C26.1875 25.2479 24.35 27.2604 22.0021 27.2604H4.99794C2.65002 27.2604 0.812522 25.2479 1.0021 22.9146L1.97919 11.2479C2.15419 9.17708 3.88961 7.57292 5.97502 7.57292H6.57294V7.20833Z" fill="black"/>
</svg>
