<svg width="69" height="69" viewBox="0 0 69 69" fill="none" xmlns="http://www.w3.org/2000/svg">
<path d="M41.29 29.5866C41.29 29.0219 40.9378 28.517 40.4078 28.3218L24.6588 22.525C24.3583 22.4145 24.0284 22.4145 23.7278 22.525L7.97873 28.3217C7.4487 28.5168 7.09656 29.0217 7.09656 29.5865V39.6002C7.09656 44.6131 8.74245 49.4843 11.8565 53.6869C14.7805 57.6334 18.866 60.7867 23.671 62.8062C24.0028 62.9455 24.3836 62.9455 24.7154 62.8062C29.5206 60.7863 33.6062 57.6329 36.5302 53.6869C39.6439 49.4843 41.2898 44.6132 41.2898 39.6002V29.5866H41.29ZM38.5947 39.6002C38.5947 44.0313 37.1319 48.3475 34.3646 52.0822C31.8343 55.497 28.3261 58.2589 24.1932 60.0958C20.0606 58.2592 16.5525 55.4973 14.022 52.0824C11.2546 48.3473 9.79173 44.0312 9.79173 39.6002V30.5266L24.1931 25.226L38.5944 30.5267V39.6002H38.5947Z" fill="url(#paint0_linear_13_267)"/>
<path d="M57.9385 21.9601C57.9385 15.1541 52.4014 9.61694 45.5954 9.61694C42.3755 9.61694 39.3282 10.8494 37.0148 13.0872C35.1485 14.8925 33.9204 17.196 33.4589 19.7056L24.6589 16.4667C24.3583 16.3562 24.0284 16.3562 23.7279 16.4667L2.3259 24.3437C1.79587 24.5387 1.44373 25.0437 1.44373 25.6085V39.5489C1.44373 45.8047 3.48192 51.8621 7.33783 57.0659C11.1933 62.2693 16.6218 66.2804 23.0364 68.6654C23.403 68.8017 23.7954 68.9998 24.1932 68.9998C24.5912 68.9998 24.9839 68.8014 25.3506 68.6653C29.8258 67.0012 33.796 64.5666 37.1508 61.4289C37.6943 60.9206 37.7229 60.0677 37.2146 59.524C36.7061 58.9808 35.8533 58.9519 35.3097 59.4603C32.2169 62.353 28.5502 64.6 24.4117 66.1389C24.3528 66.1608 24.2556 66.2195 24.1934 66.2195C24.1313 66.2195 24.0344 66.161 23.9756 66.139C18.0518 63.9364 13.0476 60.2442 9.50352 55.4614C5.99409 50.725 4.13904 45.2226 4.13904 39.5489V26.5485L24.1934 19.1674L44.2477 26.5485V39.5489C44.2477 43.2697 43.4554 46.9054 41.8927 50.3548C41.5857 51.0327 41.8862 51.8313 42.5641 52.1385C43.2421 52.4455 44.0407 52.1448 44.3478 51.4671C46.0697 47.6659 46.9429 43.656 46.9429 39.5489V34.2307C53.1173 33.5571 57.9385 28.3115 57.9385 21.9601ZM46.943 31.5155V25.6082C46.943 25.0436 46.5909 24.5386 46.0608 24.3435L36.0359 20.6534C36.324 18.5159 37.3173 16.5447 38.8888 15.0244C40.6969 13.2754 43.0786 12.3123 45.5954 12.3123C50.9152 12.3123 55.2432 16.6403 55.2432 21.9601C55.2432 26.8234 51.6273 30.858 46.943 31.5155Z" fill="url(#paint1_linear_13_267)"/>
<path d="M45.5952 7.05202C46.3394 7.05202 46.9429 6.44853 46.9429 5.70436V1.34766C46.9429 0.603481 46.3394 0 45.5952 0C44.851 0 44.2476 0.603481 44.2476 1.34766V5.70436C44.2476 6.44867 44.851 7.05202 45.5952 7.05202Z" fill="url(#paint2_linear_13_267)"/>
<path d="M33.1474 11.4185C33.4106 11.6816 33.7555 11.8133 34.1004 11.8133C34.4452 11.8133 34.7901 11.6816 35.0533 11.4185C35.5795 10.8923 35.5795 10.0389 35.0533 9.51255L31.9727 6.43195C31.4463 5.90582 30.5932 5.90582 30.0667 6.43195C29.5404 6.95821 29.5404 7.81154 30.0667 8.33794L33.1474 11.4185Z" fill="url(#paint3_linear_13_267)"/>
<path d="M58.0434 32.5027C57.5171 31.9767 56.664 31.9766 56.1374 32.5027C55.6111 33.029 55.6111 33.8823 56.1374 34.4087L59.218 37.4894C59.4812 37.7525 59.826 37.8842 60.1709 37.8842C60.5158 37.8842 60.8606 37.7525 61.1238 37.4894C61.6501 36.9632 61.6501 36.1098 61.1238 35.5834L58.0434 32.5027Z" fill="url(#paint4_linear_13_267)"/>
<path d="M57.0904 11.8133C57.4354 11.8133 57.7802 11.6816 58.0434 11.4185L61.124 8.33794C61.6502 7.81168 61.6502 6.95834 61.124 6.43195C60.5976 5.90582 59.7445 5.90582 59.218 6.43195L56.1374 9.51255C55.6111 10.0388 55.6111 10.8921 56.1374 11.4185C56.4007 11.6817 56.7454 11.8133 57.0904 11.8133Z" fill="url(#paint5_linear_13_267)"/>
<path d="M66.2086 20.613H61.8519C61.1078 20.613 60.5043 21.2165 60.5043 21.9607C60.5043 22.7049 61.1078 23.3083 61.8519 23.3083H66.2086C66.9528 23.3083 67.5563 22.7049 67.5563 21.9607C67.5563 21.2165 66.9529 20.613 66.2086 20.613Z" fill="url(#paint6_linear_13_267)"/>
<path d="M18.5463 41.356C18.0199 40.8299 17.1668 40.8299 16.6403 41.356C16.114 41.8822 16.114 42.7356 16.6403 43.262L21.1915 47.8131C21.7109 48.3323 22.5781 48.3323 23.0975 47.8131L33.1801 37.7305C33.7063 37.2043 33.7063 36.3509 33.1801 35.8245C32.6537 35.2984 31.8006 35.2984 31.2741 35.8245L22.1444 44.9544L18.5463 41.356Z" fill="url(#paint7_linear_13_267)"/>
<path d="M41.4674 55.3954C41.1851 54.718 40.3863 54.3844 39.7072 54.6663C39.0287 54.948 38.6978 55.7477 38.9782 56.4265C39.2583 57.1049 40.0605 57.4368 40.7383 57.1554C41.4188 56.8729 41.7461 56.0755 41.4674 55.3954Z" fill="url(#paint8_linear_13_267)"/>
<defs>
<linearGradient id="paint0_linear_13_267" x1="24.1933" y1="22.4421" x2="24.1933" y2="62.9107" gradientUnits="userSpaceOnUse">
<stop stop-color="#AD0B13"/>
<stop offset="1"/>
</linearGradient>
<linearGradient id="paint1_linear_13_267" x1="29.6911" y1="9.61694" x2="29.6911" y2="68.9998" gradientUnits="userSpaceOnUse">
<stop stop-color="#AD0B13"/>
<stop offset="1"/>
</linearGradient>
<linearGradient id="paint2_linear_13_267" x1="45.5952" y1="0" x2="45.5952" y2="7.05202" gradientUnits="userSpaceOnUse">
<stop stop-color="#AD0B13"/>
<stop offset="1"/>
</linearGradient>
<linearGradient id="paint3_linear_13_267" x1="32.56" y1="6.03735" x2="32.56" y2="11.8133" gradientUnits="userSpaceOnUse">
<stop stop-color="#AD0B13"/>
<stop offset="1"/>
</linearGradient>
<linearGradient id="paint4_linear_13_267" x1="58.6306" y1="32.1082" x2="58.6306" y2="37.8842" gradientUnits="userSpaceOnUse">
<stop stop-color="#AD0B13"/>
<stop offset="1"/>
</linearGradient>
<linearGradient id="paint5_linear_13_267" x1="58.6307" y1="6.03735" x2="58.6307" y2="11.8133" gradientUnits="userSpaceOnUse">
<stop stop-color="#AD0B13"/>
<stop offset="1"/>
</linearGradient>
<linearGradient id="paint6_linear_13_267" x1="64.0303" y1="20.613" x2="64.0303" y2="23.3083" gradientUnits="userSpaceOnUse">
<stop stop-color="#AD0B13"/>
<stop offset="1"/>
</linearGradient>
<linearGradient id="paint7_linear_13_267" x1="24.9102" y1="35.4299" x2="24.9102" y2="48.2025" gradientUnits="userSpaceOnUse">
<stop stop-color="#AD0B13"/>
<stop offset="1"/>
</linearGradient>
<linearGradient id="paint8_linear_13_267" x1="40.2226" y1="54.5659" x2="40.2226" y2="57.2557" gradientUnits="userSpaceOnUse">
<stop stop-color="#AD0B13"/>
<stop offset="1"/>
</linearGradient>
</defs>
</svg>
