<svg width="26" height="26" viewBox="0 0 26 26" fill="none" xmlns="http://www.w3.org/2000/svg">
<path d="M12.8152 12.5243C14.5358 12.5243 16.0255 11.9072 17.2431 10.6896C18.4603 9.47227 19.0776 7.98276 19.0776 6.26195C19.0776 4.54174 18.4605 3.05203 17.2429 1.83427C16.0253 0.61711 14.5356 0 12.8152 0C11.0944 0 9.60489 0.61711 8.38753 1.83447C7.17017 3.05183 6.55286 4.54154 6.55286 6.26195C6.55286 7.98276 7.17017 9.47247 8.38753 10.6898C9.60529 11.907 11.095 12.5243 12.8152 12.5243ZM9.46504 2.91178C10.3991 1.97769 11.4949 1.52363 12.8152 1.52363C14.1353 1.52363 15.2313 1.97769 16.1656 2.91178C17.0997 3.84608 17.5539 4.94204 17.5539 6.26195C17.5539 7.58226 17.0997 8.67802 16.1656 9.61232C15.2313 10.5466 14.1353 11.0007 12.8152 11.0007C11.4953 11.0007 10.3995 10.5464 9.46504 9.61232C8.53075 8.67822 8.07649 7.58226 8.07649 6.26195C8.07649 4.94204 8.53075 3.84608 9.46504 2.91178Z" fill="black"/>
<path d="M23.7722 19.9927C23.7371 19.4861 23.666 18.9334 23.5615 18.3499C23.456 17.7619 23.3201 17.2061 23.1574 16.6981C22.9892 16.173 22.7609 15.6545 22.4782 15.1576C22.1853 14.6418 21.8409 14.1927 21.4545 13.8232C21.0504 13.4366 20.5557 13.1257 19.9836 12.899C19.4135 12.6735 18.7817 12.5592 18.1059 12.5592C17.8405 12.5592 17.5838 12.6681 17.0881 12.9909C16.783 13.1898 16.4261 13.4199 16.0278 13.6744C15.6872 13.8914 15.2258 14.0947 14.6559 14.2788C14.0999 14.4587 13.5354 14.55 12.978 14.55C12.421 14.55 11.8564 14.4587 11.3 14.2788C10.7307 14.0949 10.2691 13.8916 9.92912 13.6746C9.53458 13.4225 9.17752 13.1924 8.86787 12.9907C8.37256 12.6679 8.11588 12.559 7.85046 12.559C7.17444 12.559 6.54285 12.6735 5.97295 12.8992C5.40126 13.1255 4.90634 13.4364 4.50188 13.8234C4.11546 14.1931 3.7711 14.642 3.47832 15.1576C3.19604 15.6545 2.96753 16.1728 2.79932 16.6983C2.63686 17.2063 2.50098 17.7619 2.39545 18.3499C2.29071 18.9326 2.21989 19.4855 2.18478 19.9933C2.15027 20.4898 2.13281 21.0065 2.13281 21.5286C2.13281 22.8858 2.56425 23.9846 3.41504 24.7949C4.25531 25.5945 5.36694 26 6.71919 26H19.2384C20.5902 26 21.7018 25.5945 22.5423 24.7949C23.3933 23.9852 23.8247 22.886 23.8247 21.5284C23.8245 21.0046 23.8069 20.4878 23.7722 19.9927ZM21.4918 23.691C20.9366 24.2194 20.1994 24.4763 19.2382 24.4763H6.71919C5.75772 24.4763 5.0206 24.2194 4.46558 23.6912C3.92107 23.1729 3.65645 22.4653 3.65645 21.5286C3.65645 21.0414 3.67252 20.5604 3.70465 20.0986C3.73599 19.6456 3.80006 19.1479 3.89508 18.619C3.98891 18.0967 4.10832 17.6066 4.25035 17.1628C4.38663 16.7373 4.57249 16.316 4.80299 15.9102C5.02298 15.5234 5.27609 15.1915 5.55539 14.9241C5.81664 14.674 6.14592 14.4693 6.53392 14.3157C6.89276 14.1737 7.29604 14.0959 7.73383 14.0842C7.78719 14.1126 7.8822 14.1668 8.03613 14.2671C8.34935 14.4712 8.71037 14.7041 9.10948 14.959C9.55937 15.2459 10.139 15.5049 10.8315 15.7285C11.5394 15.9574 12.2615 16.0736 12.9782 16.0736C13.6949 16.0736 14.4171 15.9574 15.1247 15.7287C15.8178 15.5047 16.3972 15.2459 16.8477 14.9586C17.2561 14.6976 17.607 14.4714 17.9202 14.2671C18.0742 14.167 18.1692 14.1126 18.2225 14.0842C18.6605 14.0959 19.0638 14.1737 19.4228 14.3157C19.8106 14.4693 20.1399 14.6742 20.4012 14.9241C20.6805 15.1913 20.9336 15.5232 21.1536 15.9104C21.3843 16.316 21.5703 16.7375 21.7064 17.1626C21.8486 17.607 21.9682 18.0969 22.0619 18.6188C22.1567 19.1487 22.221 19.6466 22.2523 20.0988V20.0992C22.2846 20.5592 22.3009 21.0401 22.3011 21.5286C22.3009 22.4655 22.0363 23.1729 21.4918 23.691Z" fill="black"/>
</svg>
