<svg width="19" height="21" viewBox="0 0 19 21" fill="none" xmlns="http://www.w3.org/2000/svg">
<path fill-rule="evenodd" clip-rule="evenodd" d="M18.3651 10.3328C18.1555 10.5424 17.8712 10.6601 17.5748 10.6601C17.2785 10.6601 16.9942 10.5424 16.7846 10.3328L10.8682 4.41644L10.8682 19.6025C10.8682 19.8989 10.7504 20.1833 10.5408 20.3929C10.3312 20.6026 10.0469 20.7203 9.75047 20.7203C9.45392 20.7203 9.16967 20.6026 8.95998 20.3929C8.75039 20.1833 8.63269 19.8989 8.63269 19.6025L8.63269 4.41644L2.7163 10.3328C2.50538 10.5365 2.22303 10.6491 1.92995 10.6466C1.63698 10.644 1.35653 10.5265 1.14929 10.3192C0.942055 10.1119 0.824578 9.83158 0.822008 9.5385C0.819437 9.24542 0.932108 8.96307 1.13565 8.75226L8.9602 0.92786C9.16978 0.71831 9.45403 0.600586 9.75047 0.600586C10.0468 0.600586 10.331 0.71831 10.5406 0.92786L18.3651 8.75226C18.5747 8.96195 18.6924 9.2462 18.6924 9.54253C18.6924 9.83896 18.5747 10.1232 18.3651 10.3328Z" fill="#151515"/>
</svg>
