<svg width="21" height="20" viewBox="0 0 21 20" fill="none" xmlns="http://www.w3.org/2000/svg">
<path fill-rule="evenodd" clip-rule="evenodd" d="M11.6327 0.663063L13.8824 5.22145C14.0555 5.57233 14.3906 5.81588 14.7777 5.87184L19.8084 6.60283C20.7836 6.74466 21.1732 7.94339 20.4676 8.63144L16.8274 12.1797C16.5473 12.4528 16.4192 12.8467 16.4853 13.2324L17.3448 18.2427C17.5113 19.2141 16.4917 19.9549 15.6192 19.4963L11.1196 17.1309C10.7733 16.9489 10.3591 16.9489 10.0127 17.1309L5.51313 19.4963C4.64066 19.9549 3.62108 19.2141 3.78755 18.2427L4.647 13.2324C4.71316 12.8467 4.58505 12.4528 4.30491 12.1797L0.664744 8.63144C-0.0409043 7.94339 0.348347 6.74466 1.32394 6.60283L6.35463 5.87184C6.74212 5.81553 7.07682 5.57233 7.24997 5.22145L9.4996 0.663063C9.93601 -0.221021 11.1963 -0.221021 11.6327 0.663063Z" fill="#FFB428"/>
</svg>
